<?xml version="1.0" standalone="no"?>
<!DOCTYPE svg PUBLIC "-//W3C//DTD SVG 20010904//EN"
 "http://www.w3.org/TR/2001/REC-SVG-20010904/DTD/svg10.dtd">
<svg version="1.0" xmlns="http://www.w3.org/2000/svg"
 width="954.000000pt" height="874.000000pt" viewBox="0 0 954.000000 874.000000"
 preserveAspectRatio="xMidYMid meet">

<g transform="translate(0.000000,874.000000) scale(0.100000,-0.100000)"
fill="#000000" stroke="none">
<path d="M4087 8532 c-15 -16 -17 -54 -17 -333 0 -295 -1 -315 -19 -326 -14
-9 -18 -22 -17 -62 l2 -51 -64 0 -64 0 4 -40 c2 -22 -1 -42 -7 -44 -5 -2 13
-5 40 -5 28 -1 80 -4 118 -8 l67 -6 -2 -60 c-2 -41 2 -62 10 -65 7 -2 12 -13
12 -25 0 -17 6 -22 25 -22 19 0 25 5 25 23 0 21 4 22 69 22 65 0 69 -1 73 -25
4 -17 -15 -68 -57 -158 l-62 -132 -74 -3 -75 -3 -34 140 c-28 116 -32 147 -24
183 5 24 8 60 6 81 l-3 37 -60 0 -59 0 0 -60 0 -60 30 0 c27 0 30 -3 30 -32 0
-18 -17 -89 -38 -158 l-39 -125 -909 -5 -909 -5 0 -55 0 -55 -560 -2 -560 -2
-3 -350 -2 -350 -153 -3 -152 -3 3 176 c2 97 -1 199 -5 225 l-8 49 -143 3
-142 3 -1 -43 c0 -24 0 -292 1 -595 l2 -553 -69 -2 c-109 -2 -122 -3 -130 -11
-14 -15 22 -27 80 -27 31 0 57 -4 57 -10 0 -6 -30 -10 -70 -10 -52 0 -70 -3
-70 -14 0 -13 78 -26 161 -26 l39 0 0 -899 c0 -710 3 -900 13 -904 7 -3 5 -6
-5 -6 -20 -1 -22 -28 -12 -118 5 -35 11 -53 20 -53 9 0 14 11 14 29 0 17 3 32
8 35 4 2 6 -13 4 -35 l-4 -40 123 3 124 3 8 49 c4 26 6 135 5 241 l-3 192 78
2 77 2 0 -550 c0 -361 3 -551 10 -551 6 0 325 0 710 0 385 0 705 0 710 0 6 0
10 128 10 365 l0 365 49 0 50 0 3 -47 3 -47 133 3 132 3 0 -51 0 -51 179 0
180 0 4 -32 4 -33 1 33 2 32 85 0 85 0 0 -30 c0 -29 2 -30 45 -30 33 0 45 -4
45 -15 0 -11 -12 -15 -45 -15 -43 0 -45 -1 -45 -30 l0 -30 -84 0 -85 0 -4 32
-4 33 -1 -32 -2 -33 -71 0 c-62 0 -70 -2 -67 -17 2 -10 13 -19 26 -21 16 -3
20 0 16 12 -5 14 14 16 160 18 91 1 174 2 184 2 9 1 17 -6 17 -14 0 -10 -13
-16 -42 -18 -40 -3 -43 -5 -43 -33 0 -28 2 -29 45 -29 33 0 45 -4 45 -15 0
-11 -12 -15 -45 -15 -45 0 -45 0 -45 -35 0 -33 2 -35 34 -35 26 0 45 -10 84
-45 l50 -45 614 0 614 0 44 45 44 45 211 0 211 0 27 28 c24 25 26 35 29 127
l3 100 227 3 228 2 2 -1272 3 -1273 25 -2 c14 -1 448 -2 965 -3 l940 -1 3 146
c2 120 5 145 17 145 28 0 15 28 -15 32 -17 3 -32 2 -35 0 -3 -3 -5 -68 -5
-144 l0 -138 -512 1 c-282 1 -505 3 -495 6 15 4 17 18 17 114 0 90 -3 109 -15
109 -8 0 -15 5 -15 10 0 15 -29 12 -46 -4 -23 -23 -17 -44 14 -48 26 -3 27 -6
30 -65 l3 -63 -31 0 c-23 0 -30 -4 -30 -20 0 -11 5 -20 10 -20 6 0 10 -4 10
-10 0 -12 -102 -13 -468 -3 l-263 6 59 61 c54 55 59 64 50 87 -6 20 -16 27
-36 27 -45 0 -54 -15 -25 -44 l26 -26 -44 -44 -43 -44 -28 27 -28 27 0 428 0
429 1093 -7 c1105 -6 1156 -5 1144 29 -3 9 -158 13 -703 17 -384 3 -691 6
-681 8 15 2 17 15 17 112 0 91 -3 110 -15 110 -13 0 -15 33 -15 235 l0 235
958 2 957 3 0 668 0 667 -1375 3 -1375 2 0 75 0 75 1413 3 1412 2 0 -765 0
-765 -654 0 c-515 0 -655 -3 -657 -13 -2 -6 -2 -93 1 -192 l6 -180 2 168 c3
225 21 221 25 -6 l3 -172 2 178 2 177 653 0 652 -1 0 801 0 800 -1430 3 -1430
2 -3 28 -3 27 1465 0 1466 0 0 -850 0 -851 -361 1 c-199 1 -364 -2 -368 -7 -3
-4 -4 -73 0 -153 l5 -145 2 132 2 133 378 2 377 3 3 888 2 887 -1485 0 -1485
0 0 30 0 30 1525 0 1525 0 0 -1254 c0 -1134 -2 -1254 -16 -1260 -9 -3 -659 -6
-1445 -6 -1422 0 -1429 0 -1429 -20 0 -11 7 -20 15 -20 13 0 15 -42 18 -297
l2 -298 3 297 2 298 1430 2 1430 3 0 1294 c0 712 -3 1297 -7 1300 -5 3 -663 4
-1463 1 l-1455 -5 1443 -3 c953 -1 1442 -5 1442 -12 0 -7 -601 -11 -1780 -12
-979 -1 -1789 -2 -1800 -2 -40 -2 -19 19 23 22 42 3 43 4 39 32 l-4 30 231 0
231 0 0 -30 c0 -25 4 -30 23 -30 20 0 23 4 19 30 l-4 30 858 3 c801 2 782 2
-286 4 -921 2 -1146 5 -1148 15 -2 11 145 13 755 13 417 0 548 1 291 2 l-468
3 0 30 0 30 1593 0 c875 0 1602 -3 1615 -6 l22 -6 0 -1418 0 -1418 -25 -6
c-14 -4 -399 -6 -857 -6 l-831 1 2 -203 c1 -111 4 -205 7 -207 2 -2 4 80 4
182 0 160 2 187 15 187 8 0 15 7 15 15 0 13 98 15 819 15 736 0 819 -2 825
-16 3 -8 13 -14 21 -12 14 3 15 164 15 1468 0 1462 0 1465 -20 1468 -13 2 -20
-2 -20 -12 0 -15 -178 -16 -1870 -18 -1028 -1 -1879 -2 -1890 -2 -40 -2 -19
19 23 22 42 3 43 4 39 32 l-4 30 231 0 231 0 0 -30 c0 -25 4 -30 23 -30 20 0
23 4 19 30 l-4 30 443 3 c312 2 230 3 -276 5 -396 1 -726 2 -732 2 -7 0 -13 6
-13 13 0 9 108 12 507 12 280 -1 410 1 290 2 l-219 3 4 48 3 47 -252 3 -253 2
0 445 0 445 -167 2 -168 3 -3 148 -3 147 -219 0 -219 0 -3 -147 -3 -148 -362
-3 -363 -2 0 50 0 50 -175 0 -175 0 0 -50 0 -50 -50 0 -50 0 0 -685 0 -685
-85 0 -85 0 0 1160 0 1160 1833 2 c1621 3 1832 5 1832 18 0 13 -214 15 -1852
18 -1848 2 -1853 2 -1853 -18 0 -11 7 -20 15 -20 13 0 15 -135 15 -1159 l0
-1159 -160 -1 -160 -2 0 1331 0 1330 777 2 c732 3 778 4 781 21 3 16 -40 17
-797 17 l-801 0 0 -1350 0 -1350 -75 0 -75 0 0 1365 0 1365 968 2 967 3 3 57
3 57 156 3 156 3 16 55 17 55 66 3 66 3 13 -58 c7 -32 16 -60 20 -63 5 -3 26
-4 49 -2 31 3 40 8 40 23 0 14 -7 19 -29 19 -21 0 -30 6 -35 23 -13 48 -8 57
29 57 28 0 35 4 35 20 0 17 -7 20 -44 20 l-44 0 -31 125 c-28 114 -31 135 -25
220 l7 95 -62 0 -61 0 0 -60 0 -60 30 0 c41 0 40 -16 -12 -182 l-43 -138 -95
0 -96 0 -62 133 c-34 72 -62 144 -62 160 0 23 4 27 29 27 34 0 39 14 33 83
l-4 47 -67 2 -66 2 75 6 c41 4 68 7 60 8 -12 2 -15 12 -12 42 l4 40 -61 0 -61
0 0 60 c0 53 -2 60 -20 60 -20 0 -20 7 -20 318 0 374 7 352 -107 352 -55 0
-73 -4 -86 -18z m-105 -1320 c-24 -2 -46 -2 -48 1 -2 2 8 41 23 88 l26 84 22
-85 21 -85 -44 -3z m857 76 l19 -78 -53 0 -54 0 25 73 c32 95 36 104 40 92 2
-5 12 -45 23 -87z m-493 -185 c-4 -9 -28 -13 -81 -13 -68 0 -75 -2 -75 -20 0
-18 7 -20 80 -20 l80 0 0 -35 0 -35 -970 -2 -970 -3 0 -1404 c0 -772 2 -1407
5 -1410 3 -3 46 -4 95 -2 l90 3 0 -26 0 -26 -115 0 -115 0 0 1051 1 1050 -388
0 -388 -1 3 74 3 73 82 7 c45 3 160 6 255 6 l172 0 0 340 0 340 881 0 c485 0
884 2 888 5 3 3 12 29 21 58 l16 52 61 3 61 3 12 -53 c16 -69 21 -74 69 -70
32 3 41 8 41 23 0 14 -7 19 -25 19 -18 0 -28 7 -35 26 -20 52 -17 55 70 50 76
-5 81 -4 89 17 5 12 26 58 47 102 l39 80 3 -124 c1 -69 0 -131 -2 -138z m133
77 c7 -12 27 -14 110 -12 55 2 101 1 101 -2 0 -4 -7 -22 -14 -41 l-15 -35
-135 0 -136 0 1 138 1 137 39 -85 c22 -47 44 -92 48 -100z m-609 -15 c0 -3 -7
-21 -14 -40 l-15 -35 -865 0 -866 0 0 40 0 40 880 0 c484 0 880 -2 880 -5z
m-1800 -435 l0 -320 -195 0 c-107 0 -195 2 -195 4 0 2 54 45 120 97 l120 93
-2 185 -3 186 -412 3 -413 2 0 -295 0 -295 -50 0 -50 0 0 330 0 330 540 0 540
0 0 -320z m-190 50 l0 -150 -137 -109 -138 -109 -6 217 c-4 119 -7 219 -8 224
0 4 -66 7 -146 7 l-145 0 -1 -37 c0 -21 0 -289 1 -595 l2 -558 -69 -2 c-37 -1
-81 -2 -97 -2 -16 -1 -31 -6 -33 -13 -3 -8 19 -14 69 -19 82 -8 70 -22 -19
-23 -39 -1 -53 -5 -53 -15 0 -11 20 -14 91 -15 50 -1 95 -4 100 -7 5 -3 9
-383 9 -904 0 -709 3 -899 13 -903 7 -3 5 -6 -5 -6 -20 -1 -22 -28 -12 -118 8
-62 34 -76 34 -18 0 19 3 35 8 35 4 0 6 -18 4 -40 l-4 -41 123 3 124 3 7 40
c13 73 9 429 -4 446 -7 7 72 -69 175 -171 l187 -185 0 -252 0 -253 -480 0
-480 0 -2 438 -3 437 -77 3 -78 3 0 39 c0 36 4 41 63 82 34 24 70 47 80 51 16
6 17 69 17 1041 l0 1035 71 3 71 3 -1 293 -2 292 375 0 376 0 0 -150z m2280
100 c0 -7 -260 -10 -760 -10 -500 0 -760 3 -760 10 0 7 260 10 760 10 500 0
760 -3 760 -10z m-1530 -1350 c0 -880 -3 -1330 -10 -1330 -7 0 -10 450 -10
1330 0 880 3 1330 10 1330 7 0 10 -450 10 -1330z m3960 1010 c0 -7 -610 -10
-1810 -10 -1200 0 -1810 3 -1810 10 0 7 610 10 1810 10 1200 0 1810 -3 1810
-10z m-5650 -1219 l0 -1019 -49 -36 c-27 -20 -52 -36 -55 -36 -4 0 -6 440 -6
978 l1 977 -98 5 -98 5 0 73 0 72 153 0 152 0 0 -1019z m1040 869 c-195 -3
-361 -3 -368 -1 -44 13 45 15 365 11 l358 -5 -355 -5z m-1190 -20 c0 -6 -32
-10 -75 -10 -43 0 -75 4 -75 10 0 6 32 10 75 10 43 0 75 -4 75 -10z m1540
-1030 l0 -1030 -375 -2 c-236 -2 -371 0 -365 6 6 6 10 400 10 1033 l0 1023
365 0 365 0 0 -1030z m27 -802 c-1 -337 -2 -62 -2 612 0 674 1 949 2 613 2
-337 2 -889 0 -1225z m-1567 835 l0 -978 -72 -50 c-40 -27 -75 -51 -78 -52 -3
-2 -5 461 -5 1027 l0 1030 78 0 77 0 0 -977z m27 -1391 c-1 -433 -2 -78 -2
788 0 866 1 1221 2 787 2 -433 2 -1141 0 -1575z m3133 1747 c0 -6 -7 -17 -15
-25 -13 -14 -15 -13 -15 10 0 16 6 26 15 26 8 0 15 -5 15 -11z m50 -17 c0 -31
-34 -26 -38 5 -3 17 2 21 17 20 15 -1 21 -8 21 -25z m46 4 c-1 -17 -4 -21 -13
-15 -7 7 -13 5 -16 -3 -3 -7 -6 -1 -6 15 -1 20 4 27 18 27 14 0 18 -7 17 -24z
m75 15 c-9 -6 -10 -11 -2 -15 19 -12 12 -26 -11 -25 -13 0 -17 3 -11 6 9 3 10
10 3 24 -9 16 -7 19 12 19 17 0 19 -3 9 -9z m41 0 c-8 -4 -14 -12 -14 -16 0
-4 6 -12 14 -16 10 -7 9 -9 -4 -9 -13 0 -18 8 -18 25 0 17 5 25 18 25 13 0 14
-2 4 -9z m52 -33 c7 -5 5 -8 -6 -8 -13 0 -18 7 -17 28 1 21 2 22 6 7 3 -11 10
-23 17 -27z m-124 -78 c0 -5 -2 -10 -4 -10 -3 0 -8 5 -11 10 -3 6 -1 10 4 10
6 0 11 -4 11 -10z m-20 -70 c0 -6 -27 -10 -60 -10 -33 0 -60 4 -60 10 0 6 27
10 60 10 33 0 60 -4 60 -10z m130 0 c0 -6 -27 -10 -60 -10 -33 0 -60 4 -60 10
0 6 27 10 60 10 33 0 60 -4 60 -10z m-160 -45 c0 -17 -9 -19 -30 -5 -9 6 -17
5 -22 -3 -5 -8 -8 -6 -8 6 0 12 8 17 30 17 20 0 30 -5 30 -15z m90 5 c-24 -8
-24 -8 -2 -9 12 -1 22 -6 22 -12 0 -18 -45 -5 -48 14 -3 13 3 17 25 16 l28 -1
-25 -8z m-98 -48 c-6 -2 -10 -8 -6 -13 3 -5 -6 -9 -19 -9 -13 0 -24 6 -24 13
0 9 12 14 31 14 17 0 25 -2 18 -5z m82 -4 c-6 -10 -4 -10 7 0 17 16 39 15 39
-1 0 -9 -12 -14 -30 -15 -20 0 -30 4 -30 14 0 8 5 14 11 14 5 0 7 -6 3 -12z
m-74 -54 c0 -11 -5 -14 -16 -10 -9 3 -23 6 -32 7 -10 1 -7 4 8 9 37 12 40 11
40 -6z m118 4 c-7 -20 -58 -23 -58 -4 0 11 10 16 31 16 20 0 29 -4 27 -12z
m904 -155 c22 -20 23 -61 1 -85 -34 -38 -103 -11 -103 40 0 54 62 81 102 45z
m-242 -303 c0 -10 -7 -20 -15 -24 -16 -6 -18 -2 -9 31 7 26 24 21 24 -7z m50
-2 c0 -23 -3 -29 -9 -19 -7 11 -9 11 -14 0 -3 -8 -6 1 -6 19 -1 22 4 32 14 32
10 0 15 -10 15 -32z m45 24 c-12 -8 -13 -22 -2 -39 5 -9 3 -13 -8 -13 -8 0
-18 7 -21 15 -9 22 3 45 23 45 11 0 14 -3 8 -8z m47 1 c-6 -2 -10 -8 -8 -11 2
-4 -2 -13 -10 -20 -12 -11 -14 -9 -14 13 0 20 5 25 23 24 12 0 16 -3 9 -6z m2
-126 c-15 -41 -34 -9 -25 43 1 2 8 -3 16 -11 9 -9 13 -23 9 -32z m-104 23
c-10 -6 -11 -10 -2 -10 6 0 12 -7 12 -15 0 -16 -25 -21 -34 -6 -10 15 5 41 23
41 14 0 14 -2 1 -10z m40 -2 c0 -9 4 -8 10 2 8 12 10 9 10 -12 0 -16 -4 -28
-10 -28 -5 0 -10 6 -10 13 0 8 -4 7 -10 -3 -8 -12 -10 -9 -10 13 0 15 5 27 10
27 6 0 10 -6 10 -12z m-442 -42 c5 -57 -5 -86 -28 -86 -18 0 -20 7 -20 66 0
62 1 65 23 62 18 -2 23 -10 25 -42z m80 0 c5 -57 -5 -86 -28 -86 -18 0 -20 7
-20 66 0 62 1 65 23 62 18 -2 23 -10 25 -42z m157 -21 c0 -55 -2 -60 -22 -63
-22 -3 -23 0 -23 63 0 63 1 66 23 63 20 -3 22 -8 22 -63z m865 0 l0 -25 -230
0 -230 0 0 25 0 25 230 0 230 0 0 -25z m-690 -37 c0 -9 -34 -28 -49 -28 -6 0
-11 8 -11 18 0 12 8 17 30 17 17 0 30 -3 30 -7z m48 -5 c6 -2 12 2 12 9 0 9 3
9 12 0 9 -9 9 -15 1 -23 -16 -16 -47 -7 -51 16 -2 11 0 16 5 10 4 -5 14 -11
21 -12z m-458 -62 c0 -13 -7 -18 -23 -18 -15 0 -23 6 -24 18 -1 14 5 19 23 19
17 0 24 -6 24 -19z m80 0 c0 -15 -5 -17 -27 -12 -26 5 -26 6 -5 9 12 2 22 8
22 13 0 5 2 9 5 9 3 0 5 -8 5 -19z m160 9 c0 -5 -9 -10 -19 -10 -11 0 -22 -6
-24 -12 -3 -7 -6 -3 -6 10 -1 17 5 22 24 22 14 0 25 -4 25 -10z m170 -41 c0
-5 -3 -9 -7 -9 -5 0 -18 -3 -30 -6 -16 -4 -23 -2 -23 7 0 9 12 14 30 15 17 1
30 -3 30 -7z m51 -1 c0 -10 2 -10 6 0 7 17 23 15 23 -3 0 -8 -9 -15 -20 -15
-11 0 -20 6 -20 13 0 8 -4 7 -10 -3 -8 -13 -10 -12 -10 3 0 19 30 24 31 5z
m-461 -18 c0 -9 -9 -15 -23 -15 -14 0 -23 6 -23 15 0 9 9 15 23 15 14 0 23 -6
23 -15z m80 0 c0 -9 -9 -15 -23 -15 -14 0 -23 6 -23 15 0 9 9 15 23 15 14 0
23 -6 23 -15z m1020 -30 l0 -30 -230 0 -230 0 0 30 0 30 230 0 230 0 0 -30z
m-2237 -27 c3 -5 1 -17 -4 -28 -5 -13 -8 -15 -8 -5 -1 13 -2 13 -11 0 -8 -12
-10 -9 -10 13 0 25 22 39 33 20z m42 -1 c-14 -10 -17 -32 -5 -32 6 0 10 -4 10
-10 0 -5 -7 -10 -15 -10 -10 0 -15 10 -15 30 0 22 5 30 18 30 9 0 13 -4 7 -8z
m55 -3 c0 -5 -6 -7 -12 -3 -10 6 -10 4 0 -7 16 -17 15 -39 -1 -39 -9 0 -14 12
-15 30 0 20 4 30 14 30 8 0 14 -5 14 -11z m40 1 c-13 -8 -13 -13 -2 -31 12
-18 11 -20 -5 -17 -11 2 -19 14 -21 31 -3 23 0 27 20 27 18 0 20 -2 8 -10z
m54 -12 c-3 -13 -8 -25 -10 -27 -6 -6 -11 1 -18 27 -6 18 -4 22 14 22 18 0 20
-4 14 -22z m1176 3 c0 -10 -7 -21 -15 -25 -11 -4 -15 1 -15 19 0 16 6 25 15
25 8 0 15 -9 15 -19z m41 10 c6 10 9 6 9 -13 0 -18 -5 -28 -14 -28 -20 0 -29
17 -21 38 6 13 9 14 12 3 5 -11 7 -11 14 0z m58 -18 c0 -24 -2 -25 -8 -8 -8
19 -8 19 -19 0 -11 -18 -11 -18 -12 8 0 20 5 27 20 27 15 0 20 -6 19 -27z m66
-9 c-26 -19 -45 -17 -45 4 0 15 6 18 32 14 29 -4 30 -6 13 -18z m80 0 c-26
-19 -45 -17 -45 4 0 15 6 18 32 14 29 -4 30 -6 13 -18z m-402 -74 c8 -7 -43
-30 -67 -30 -6 0 -11 13 -12 29 -1 28 0 28 35 19 20 -5 40 -13 44 -18z m-1208
-11 c0 -16 -6 -25 -20 -27 -11 -2 -16 0 -10 5 14 11 17 33 4 33 -5 0 -7 5 -4
11 11 17 30 4 30 -22z m93 -2 c3 -21 -1 -27 -15 -27 -15 0 -16 2 -3 10 13 9
13 10 0 10 -13 0 -13 1 0 10 10 6 11 10 3 10 -7 0 -13 5 -13 11 0 23 25 1 28
-24z m-57 14 c13 21 18 7 7 -21 -7 -20 -11 -22 -18 -10 -5 8 -9 22 -9 30 0 12
2 12 6 1 4 -11 7 -11 14 0z m1329 -2 c0 -6 -7 -17 -15 -25 -13 -14 -15 -13
-15 10 0 16 6 26 15 26 8 0 15 -5 15 -11z m50 -17 c0 -31 -34 -26 -38 5 -3 17
2 21 17 20 15 -1 21 -8 21 -25z m49 1 c-1 -17 -3 -21 -6 -10 -2 9 -8 17 -13
17 -5 0 -11 -8 -13 -17 -3 -11 -5 -7 -6 10 -1 21 4 27 19 27 15 0 20 -6 19
-27z m81 6 c0 -5 -3 -9 -7 -9 -5 0 -18 -3 -30 -6 -16 -4 -23 -2 -23 7 0 9 12
14 30 15 17 1 30 -3 30 -7z m80 -4 c0 -10 -10 -15 -30 -15 -20 0 -30 5 -30 15
0 10 10 15 30 15 20 0 30 -5 30 -15z m610 -45 l0 -30 -230 0 -230 0 0 30 0 30
230 0 230 0 0 -30z m-2251 -22 c1 19 31 14 31 -5 0 -15 -2 -16 -10 -3 -6 10
-10 11 -10 3 0 -7 -7 -13 -15 -13 -9 0 -15 9 -14 23 0 21 1 21 9 2 5 -11 9
-14 9 -7z m1203 5 c7 -26 -1 -43 -19 -43 -12 0 -13 3 -4 13 13 16 5 27 -21 27
-10 0 -18 5 -18 10 0 18 57 11 62 -7z m174 -18 c3 -8 -1 -22 -10 -30 -15 -15
-16 -14 -16 14 0 32 16 42 26 16z m103 -17 c-1 -18 -3 -25 -6 -15 -2 9 -8 17
-13 17 -5 0 -11 -8 -13 -17 -3 -12 -5 -8 -6 9 -1 17 5 28 17 31 9 3 18 5 20 6
1 0 1 -14 1 -31z m-49 -6 c0 -31 -34 -26 -38 5 -3 17 2 21 17 20 15 -1 21 -8
21 -25z m205 7 c0 -9 -12 -15 -30 -16 -16 -1 -22 1 -12 3 9 3 17 12 17 21 0 8
6 13 13 11 6 -3 12 -11 12 -19z m3573 6 c3 -3 3 -7 0 -10 -2 -3 -789 -5 -1749
-5 -1404 0 -1745 2 -1747 12 -2 11 335 12 1745 10 960 -1 1749 -4 1751 -7z
m-5187 -12 c-11 -4 -11 -7 0 -14 21 -13 7 -18 -21 -7 -20 7 -22 11 -10 18 8 5
22 9 30 9 12 0 12 -2 1 -6z m-701 -233 c0 -140 -4 -220 -10 -220 -6 0 -10 80
-10 220 0 140 4 220 10 220 6 0 10 -80 10 -220z m330 -1 l0 -217 -160 -1 -160
-2 0 171 0 170 35 0 c31 0 35 3 35 25 0 22 -4 25 -35 25 -30 0 -35 3 -35 24
l0 24 160 -1 160 0 0 -218z m180 196 c0 -25 -1 -25 -85 -25 -84 0 -85 0 -85
25 0 25 1 25 85 25 84 0 85 0 85 -25z m290 10 c0 -8 -5 -15 -11 -15 -6 0 -17
7 -25 15 -14 13 -13 15 10 15 16 0 26 -6 26 -15z m2130 -15 l0 -30 -230 0
-230 0 0 30 0 30 230 0 230 0 0 -30z m3000 -820 c0 -553 -3 -840 -10 -840 -7
0 -10 287 -10 840 0 553 3 840 10 840 7 0 10 -287 10 -840z m-7770 805 c0 -22
-4 -25 -37 -25 l-37 0 34 25 c19 13 36 24 38 25 1 0 2 -11 2 -25z m3721 13 c1
-7 1 -16 0 -20 0 -5 6 -8 14 -8 8 0 15 -4 15 -10 0 -5 -20 -10 -44 -10 -33 0
-45 4 -48 18 -8 29 2 42 33 42 16 0 30 -6 30 -12z m354 0 c10 -10 -22 -28 -39
-22 -25 10 -19 30 9 29 14 -1 27 -4 30 -7z m-1318 -18 c-1 -12 -8 -20 -19 -20
-18 0 -24 20 -11 33 14 14 32 6 30 -13z m-119 -12 c-3 -7 -13 -13 -23 -13 -10
0 -20 6 -22 13 -3 7 5 12 22 12 17 0 25 -5 23 -12z m-92 -16 c1 -7 0 -8 -3 -2
-2 5 -12 10 -21 10 -15 0 -15 -2 -2 -10 13 -8 12 -10 -2 -10 -10 0 -18 7 -18
16 0 19 42 16 46 -4z m1605 3 c0 -5 -12 -11 -26 -13 -18 -2 -25 1 -25 13 0 12
7 15 25 13 14 -2 26 -7 26 -13z m1813 3 l1671 -3 -1700 -5 c-935 -3 -1703 -4
-1708 -2 -20 9 9 23 35 18 17 -3 783 -7 1702 -8z m-1884 -13 c0 -7 -13 -12
-30 -11 -16 1 -30 6 -30 11 0 6 14 10 30 11 17 1 30 -4 30 -11z m-1324 -15 c0
-13 -7 -20 -18 -20 -18 0 -24 20 -11 33 13 14 29 7 29 -13z m-1218 -168 l2
-173 -62 1 c-35 1 -67 1 -73 1 -7 -1 -9 -128 -7 -366 l3 -365 -681 0 -680 0 2
528 3 527 52 3 53 3 2 -441 3 -441 523 0 524 0 -1 283 0 283 -168 168 -168
167 335 -2 335 -3 3 -173z m1093 164 c-9 -11 -9 -15 1 -19 7 -3 1 -6 -14 -6
-22 -1 -28 4 -28 19 0 15 7 20 26 20 22 0 24 -3 15 -14z m2139 -66 l0 -80
-230 0 -230 0 0 80 0 80 230 0 230 0 0 -80z m-2960 -100 l0 -171 -112 3 -113
3 -3 168 -2 167 115 0 115 0 0 -170z m540 0 l0 -170 -85 0 -85 0 0 170 0 170
85 0 85 0 0 -170z m1370 160 c0 -5 -12 -10 -26 -10 -32 0 -27 -22 7 -31 22 -6
21 -7 -7 -8 -23 -1 -33 4 -37 18 -2 11 0 24 6 30 14 14 57 14 57 1z m3950
-750 c0 -500 -3 -760 -10 -760 -7 0 -10 260 -10 760 0 500 3 760 10 760 7 0
10 -260 10 -760z m-5130 735 c0 -9 -9 -15 -22 -14 -21 1 -21 2 -3 7 l20 5 -20
8 c-19 7 -19 8 3 8 13 1 22 -5 22 -14z m1534 -10 c3 -8 1 -15 -4 -15 -6 0 -10
6 -11 13 0 10 -2 10 -6 0 -7 -18 -33 -16 -33 2 0 9 9 15 24 15 13 0 26 -7 30
-15z m-1318 -15 c0 -25 -29 -23 -34 3 -2 11 3 17 15 17 12 0 19 -7 19 -20z
m-117 -12 c0 -20 -1 -21 -8 -5 -4 10 -11 18 -16 18 -5 0 -12 -8 -16 -18 -7
-16 -8 -15 -8 5 -1 17 5 22 24 22 19 0 25 -5 24 -22z m-99 -8 c9 -18 8 -20
-15 -20 -24 0 -34 18 -18 33 11 12 22 8 33 -13z m1537 -13 c-4 -14 -57 -16
-57 -2 0 5 14 10 30 11 17 1 29 -3 27 -9z m-1437 -21 c0 -20 -11 -25 -35 -15
-13 5 -15 8 -5 8 13 1 13 2 0 11 -12 8 -9 10 13 10 17 0 27 -5 27 -14z m1051
-6 c10 0 19 5 19 11 0 8 4 9 13 0 8 -6 17 -8 20 -4 4 3 7 -1 7 -11 0 -9 -4
-15 -8 -12 -4 3 -25 1 -45 -4 -40 -9 -53 0 -42 28 5 12 9 13 12 5 3 -7 13 -13
24 -13z m385 -28 c-7 -11 -46 -4 -46 8 0 12 33 18 44 9 4 -4 5 -12 2 -17z
m-1526 -12 c0 -15 -7 -20 -25 -20 -14 0 -25 5 -25 10 0 6 7 10 15 10 8 0 15 5
15 10 0 6 5 10 10 10 6 0 10 -9 10 -20z m210 5 c0 -8 -9 -15 -20 -15 -11 0
-20 7 -20 15 0 8 9 15 20 15 11 0 20 -7 20 -15z m1400 -19 c0 -23 -13 -26 -40
-9 -24 13 -24 14 -2 10 12 -3 22 -1 22 4 0 5 5 9 10 9 6 0 10 -6 10 -14z
m-106 -2 c24 -9 19 -24 -7 -24 -14 0 -24 6 -24 15 0 16 7 18 31 9z m-1294 -24
c0 -11 -5 -20 -12 -20 -6 0 -8 3 -5 7 4 3 -1 12 -11 19 -16 12 -15 13 6 14 15
0 22 -6 22 -20z m960 -9 c0 -21 -6 -30 -22 -35 -32 -8 -38 -7 -38 4 0 6 12 10
26 10 31 0 28 23 -4 28 -33 5 -26 22 8 22 26 0 30 -3 30 -29z m-1179 12 c-11
-5 -11 -7 0 -14 10 -6 8 -9 -8 -9 -12 0 -24 4 -27 9 -7 10 10 19 34 19 12 0
12 -1 1 -5z m2229 -28 l0 -25 -230 0 -230 0 0 25 0 25 230 0 230 0 0 -25z
m2758 -602 l-3 -628 -955 -2 -955 -2 -3 -256 c-1 -158 -6 -255 -12 -255 -6 0
-10 -10 -10 -23 0 -18 5 -23 28 -22 26 0 27 -2 30 -62 l3 -63 -31 0 c-25 0
-30 -4 -30 -24 0 -13 6 -27 13 -29 18 -8 -375 -8 -556 0 l-157 6 56 58 c30 33
52 64 49 69 -4 6 -2 17 4 24 7 8 12 118 13 312 l3 299 1220 2 1220 2 0 581 0
581 -605 -1 c-333 0 -928 2 -1322 6 l-718 7 0 24 0 23 1360 0 1360 0 -2 -627z
m-3473 600 c-11 -3 -23 -10 -27 -17 -5 -7 -8 -5 -8 7 0 12 7 17 28 16 21 -1
22 -2 7 -6z m-1292 -23 c4 -16 0 -20 -19 -20 -13 0 -24 6 -24 13 0 32 35 37
43 7z m1137 -16 c0 -8 -7 -22 -15 -30 -13 -14 -15 -12 -15 15 0 21 5 31 15 31
8 0 15 -7 15 -16z m50 -15 c0 -24 -4 -30 -17 -27 -10 2 -20 14 -21 27 -3 18 0
22 12 18 9 -4 16 -2 16 3 0 6 2 10 5 10 3 0 5 -14 5 -31z m49 -4 c-1 -16 -3
-22 -6 -12 -5 20 -19 22 -26 5 -3 -7 -6 -1 -6 14 -1 21 3 26 19 25 16 -1 20
-8 19 -32z m151 29 c0 -10 -28 -34 -39 -34 -12 0 -15 23 -4 33 8 8 43 9 43 1z
m-431 -28 c18 -21 2 -46 -29 -46 -31 0 -47 25 -29 46 6 8 19 14 29 14 10 0 23
-6 29 -14z m-974 -6 c-17 -7 -17 -9 -2 -9 9 -1 17 -6 17 -12 0 -17 -34 -5 -38
14 -3 12 3 17 20 16 22 0 22 -1 3 -9z m2025 -30 l0 -30 -230 0 -230 0 0 23 c0
13 3 27 7 30 3 4 107 7 230 7 l223 0 0 -30z m1727 20 l923 0 0 -540 0 -540
-1222 -2 -1223 -3 -5 -315 c-4 -258 -7 -314 -19 -312 -7 1 -19 -2 -27 -9 -11
-9 -10 -15 6 -37 l21 -26 -43 -43 -42 -43 -28 27 -28 27 0 446 0 447 1111 -5
c712 -3 1114 -1 1120 5 5 5 7 17 3 26 -6 16 -87 17 -1087 17 l-1081 0 63 64
c37 38 61 69 56 75 -4 7 -1 19 6 27 9 11 14 70 17 200 l4 184 -106 0 -106 0 0
25 0 25 406 0 407 0 -7 -187 c-4 -104 -11 -189 -17 -191 -5 -2 -9 -12 -9 -23
0 -15 7 -19 30 -19 l31 0 -3 -62 c-3 -61 -4 -63 -30 -63 -23 1 -28 -4 -28 -22
0 -21 5 -23 45 -23 l45 0 0 105 c0 81 -3 107 -14 111 -11 4 -14 43 -12 210 l1
205 -423 -1 -423 -1 3 28 3 28 758 3 757 2 0 -235 c0 -200 -2 -236 -15 -241
-8 -4 -15 -16 -15 -28 0 -19 4 -21 36 -18 l35 4 -3 -63 -3 -64 -32 0 c-28 0
-33 -4 -33 -22 0 -21 5 -23 45 -23 l45 0 0 110 c0 71 -4 110 -11 110 -7 0 -10
80 -8 253 l2 252 -782 3 -781 2 0 25 0 25 1100 0 1100 0 0 -280 c0 -240 -2
-281 -15 -286 -8 -4 -15 -14 -15 -24 0 -14 9 -20 33 -22 32 -3 32 -4 35 -60 3
-54 1 -58 -22 -64 -14 -3 -30 -3 -35 1 -7 4 -11 -4 -11 -19 0 -24 3 -26 45
-26 l45 0 0 110 c0 94 -2 110 -16 110 -10 0 -14 6 -10 15 6 17 10 575 3 581
-2 2 -507 4 -1121 4 l-1116 0 0 23 c0 13 3 27 8 32 4 4 175 5 381 1 206 -3
790 -6 1298 -6z m-3721 -43 c3 -3 -9 -7 -26 -9 -19 -3 -30 0 -30 7 0 11 46 13
56 2z m-226 -27 c0 -15 -7 -20 -25 -20 -18 0 -25 5 -25 20 0 15 7 20 25 20 18
0 25 -5 25 -20z m1350 9 c0 -6 -7 -17 -15 -25 -13 -14 -15 -13 -15 10 0 16 6
26 15 26 8 0 15 -5 15 -11z m30 -1 c0 -9 4 -8 10 2 8 12 10 9 10 -13 0 -22 -4
-28 -17 -25 -19 3 -32 48 -14 48 6 0 11 -6 11 -12z m69 -15 c-1 -17 -3 -21 -6
-10 -2 9 -8 17 -13 17 -5 0 -11 -8 -13 -17 -3 -11 -5 -7 -6 10 -1 21 4 27 19
27 15 0 20 -6 19 -27z m136 15 c16 3 25 0 25 -8 0 -7 -6 -10 -14 -7 -8 3 -16
1 -18 -5 -6 -17 -28 0 -27 20 0 9 3 12 5 6 3 -6 16 -9 29 -6z m-1705 -8 c0 -7
-172 -10 -495 -10 -323 0 -495 3 -495 10 0 7 172 10 495 10 323 0 495 -3 495
-10z m330 -20 c0 -14 -6 -20 -22 -19 -22 0 -22 1 -3 9 18 8 18 9 2 9 -21 1
-13 21 9 21 8 0 14 -9 14 -20z m-1193 -37 c-3 -10 -5 -4 -5 12 0 17 2 24 5 18
2 -7 2 -21 0 -30z m243 12 l0 -25 -115 0 -115 0 0 25 0 25 115 0 115 0 0 -25z
m30 0 c0 -14 -4 -25 -10 -25 -5 0 -10 11 -10 25 0 14 5 25 10 25 6 0 10 -11
10 -25z m330 -1 l0 -24 -160 0 -160 0 0 25 0 26 160 -2 160 -1 0 -24z m180 1
c0 -25 -1 -25 -85 -25 -84 0 -85 0 -85 25 0 25 1 25 85 25 84 0 85 0 85 -25z
m2420 0 l0 -25 -230 0 -230 0 0 25 0 25 230 0 230 0 0 -25z m-3353 -487 c-1
-95 -3 -20 -3 167 0 187 2 265 3 173 2 -92 2 -245 0 -340z m1207 496 c20 -8
11 -24 -13 -24 -10 0 -18 7 -18 15 0 16 7 18 31 9z m134 -37 c2 -10 -3 -17
-12 -17 -18 0 -29 16 -21 31 9 14 29 6 33 -14z m642 -16 c0 -11 4 -22 8 -25
14 -9 35 12 29 28 -4 9 -2 16 3 16 6 0 10 -46 10 -110 0 -60 -4 -110 -8 -110
-5 0 -8 10 -8 22 1 14 -6 24 -18 26 -15 3 -18 -1 -14 -20 4 -22 2 -23 -67 -23
-69 0 -71 1 -67 23 3 17 0 22 -17 22 -19 0 -21 5 -21 64 0 55 3 64 18 62 12
-1 17 6 16 22 -1 21 3 22 68 22 61 0 68 -2 68 -19z m-978 -10 c-6 -3 -196 -4
-424 -1 l-413 5 410 5 c399 5 447 4 427 -9z m128 8 c0 -7 -26 -19 -41 -19 -5
0 -9 6 -9 13 0 6 11 12 25 12 14 0 25 -3 25 -6z m87 -4 c0 -9 -9 -15 -22 -15
-13 0 -22 6 -22 15 0 9 9 15 22 15 13 0 22 -6 22 -15z m1510 0 c0 -9 -10 -15
-25 -15 -21 0 -22 2 -12 15 7 8 18 15 25 15 6 0 12 -7 12 -15z m-1989 -24 c6
0 12 -12 12 -26 l0 -25 -160 0 -160 0 0 28 0 29 148 -2 c81 -1 153 -3 160 -4z
m190 -23 l3 -28 -85 0 -86 0 0 30 0 31 83 -3 c81 -3 82 -3 85 -30z m402 28 c0
-3 -4 -8 -10 -11 -5 -3 -10 -1 -10 4 0 6 5 11 10 11 6 0 10 -2 10 -4z m2020
-26 l0 -30 -230 0 -230 0 0 23 c0 13 3 27 7 30 3 4 107 7 230 7 l223 0 0 -30z
m-2930 -5 c0 -14 -4 -25 -10 -25 -5 0 -10 11 -10 25 0 14 5 25 10 25 6 0 10
-11 10 -25z m794 6 c3 -5 -1 -12 -10 -15 -24 -9 -31 -7 -31 9 0 16 32 21 41 6z
m126 -28 c0 -15 -2 -16 -10 -3 -9 13 -11 13 -20 0 -5 -8 -10 -10 -10 -4 0 14
10 24 27 24 7 0 13 -8 13 -17z m-325 -23 c0 -8 -8 -15 -17 -14 -10 0 -142 1
-293 2 -173 1 -275 6 -275 12 0 8 390 18 565 15 11 0 20 -7 20 -15z m96 3 c0
-15 2 -15 9 2 8 19 9 19 9 -2 1 -14 -5 -23 -14 -23 -8 0 -15 8 -16 18 0 14 -2
14 -9 -3 -8 -19 -9 -19 -9 3 -1 13 5 22 14 22 8 0 15 -8 16 -17z m92 10 c-12
-2 -24 -12 -26 -21 -3 -12 -5 -10 -6 6 -1 18 4 22 27 21 22 -1 23 -2 5 -6z
m1277 -4 c0 -6 -7 -17 -15 -25 -13 -14 -15 -13 -15 10 0 16 6 26 15 26 8 0 15
-5 15 -11z m50 -17 c0 -31 -34 -26 -38 5 -3 17 2 21 17 20 15 -1 21 -8 21 -25z
m49 1 c-1 -17 -3 -21 -6 -10 -2 9 -8 17 -13 17 -5 0 -11 -8 -13 -17 -3 -11 -5
-7 -6 10 -1 21 4 27 19 27 15 0 20 -6 19 -27z m126 5 c4 0 11 6 16 13 11 18
23 4 15 -16 -8 -23 -50 -15 -54 10 -2 15 -1 16 6 7 5 -8 13 -14 17 -14z
m-1365 -25 c0 -15 -2 -16 -10 -3 -9 13 -11 13 -20 0 -8 -13 -10 -12 -10 3 0
10 8 17 20 17 12 0 20 -7 20 -17z m2010 -18 l0 -25 -230 0 -230 0 0 25 0 25
230 0 230 0 0 -25z m-2135 -4 c0 -8 -4 -16 -10 -18 -16 -5 -38 14 -30 26 9 16
40 9 40 -8z m1070 -52 c0 -57 -2 -64 -20 -64 -17 0 -20 8 -23 53 -2 32 2 60 9
68 23 27 34 8 34 -57z m-1180 -1 c4 0 12 6 16 14 7 10 9 9 9 -4 0 -13 -8 -18
-25 -18 -17 0 -25 5 -25 18 0 13 2 14 9 4 4 -8 12 -14 16 -14z m111 4 c1 -7 0
-8 -3 -2 -2 5 -12 10 -21 9 -11 0 -12 -2 -4 -6 6 -2 10 -9 6 -14 -8 -13 -24
-1 -24 17 0 19 42 15 46 -4z m1495 6 c0 -10 2 -10 6 0 7 17 23 15 23 -3 0 -8
-9 -15 -20 -15 -11 0 -20 6 -20 13 0 8 -4 7 -10 -3 -8 -13 -10 -12 -10 3 0 19
30 24 31 5z m847 -63 c2 -22 1 -96 -3 -163 -7 -114 -9 -123 -26 -119 -10 3
-24 -1 -30 -9 -9 -12 -8 -19 9 -37 l22 -23 -46 -45 -45 -44 -25 28 c-24 28
-24 30 -24 236 0 114 3 211 7 215 4 4 41 5 83 4 l75 -3 3 -40z m-2428 -29 c0
-19 -17 -29 -36 -22 -12 5 -13 8 -2 20 17 19 38 20 38 2z m1479 7 c0 -5 -3
-16 -7 -25 -6 -15 -9 -14 -19 7 -10 22 -9 25 8 25 10 0 19 -3 18 -7z m46 -20
c0 -14 -6 -23 -15 -23 -9 0 -15 9 -15 23 0 14 6 23 15 23 9 0 15 -9 15 -23z
m70 1 c-26 -19 -45 -17 -45 4 0 15 6 18 32 14 29 -4 30 -6 13 -18z m-1505 1
c0 -5 -11 -10 -25 -10 -14 0 -25 5 -25 10 0 6 11 10 25 10 14 0 25 -4 25 -10z
m1070 -19 c0 -23 -17 -28 -34 -10 -21 21 -20 24 9 24 15 0 25 -6 25 -14z
m-1070 -16 c0 -5 -6 -10 -12 -10 -9 0 -8 -4 2 -10 12 -8 9 -10 -12 -10 -16 0
-28 5 -28 10 0 6 6 10 13 10 8 0 7 4 -3 10 -12 8 -9 10 13 10 15 0 27 -4 27
-10z m545 -40 c7 0 16 6 18 13 3 6 6 3 6 -8 1 -15 -5 -20 -24 -20 -19 0 -25 5
-24 20 0 11 3 14 6 8 2 -7 11 -13 18 -13z m516 13 c-11 -5 -11 -7 0 -14 10 -6
6 -9 -13 -9 -18 0 -28 5 -28 15 0 10 9 15 28 14 15 0 21 -3 13 -6z m-135 -20
c18 -24 17 -33 -3 -33 -12 0 -18 8 -18 25 0 30 3 31 21 8z m461 -14 c1 -18 -3
-25 -18 -25 -13 0 -19 7 -19 21 0 43 33 46 37 4z m-1503 10 c10 16 26 13 26
-5 0 -8 -4 -13 -9 -9 -5 3 -12 1 -16 -5 -9 -14 -25 -2 -25 18 0 13 2 14 9 3 6
-9 11 -10 15 -2z m776 -4 c0 -8 -4 -15 -9 -15 -5 0 -11 7 -15 15 -3 9 0 15 9
15 8 0 15 -7 15 -15z m98 -3 c6 -18 -15 -14 -22 4 -4 10 -1 14 6 12 6 -2 14
-10 16 -16z m92 3 c0 -8 -4 -15 -10 -15 -5 0 -10 7 -10 15 0 8 5 15 10 15 6 0
10 -7 10 -15z m585 -8 c0 -14 -6 -23 -15 -23 -9 0 -15 9 -15 23 0 14 6 23 15
23 9 0 15 -9 15 -23z m85 8 c0 -10 -10 -15 -30 -15 -20 0 -30 5 -30 15 0 10
10 15 30 15 20 0 30 -5 30 -15z m-450 -25 c0 -11 -5 -20 -10 -20 -7 0 -7 -6 0
-20 16 -31 -4 -62 -38 -58 -21 2 -28 9 -30 31 -4 30 23 61 43 50 5 -3 4 0 -2
8 -19 20 -16 29 12 29 18 0 25 -5 25 -20z m-502 -15 c4 -20 4 -20 -11 -1 -14
19 -14 19 -25 0 -9 -15 -11 -16 -12 -3 0 35 42 38 48 4z m-534 -14 c25 -27 17
-72 -15 -90 -24 -13 -29 -13 -53 2 -47 31 -27 107 28 107 13 0 31 -9 40 -19z
m510 -22 c10 15 26 14 26 -2 0 -7 -11 -14 -25 -15 -18 -1 -25 3 -25 16 0 13 2
14 9 3 6 -9 11 -10 15 -2z m116 -25 c0 -8 -4 -12 -10 -9 -5 3 -10 10 -10 16 0
5 5 9 10 9 6 0 10 -7 10 -16z m100 6 c0 -5 -4 -10 -9 -10 -6 0 -13 5 -16 10
-3 6 1 10 9 10 9 0 16 -4 16 -10z m90 0 c0 -5 -4 -10 -10 -10 -5 0 -10 5 -10
10 0 6 5 10 10 10 6 0 10 -4 10 -10z m-280 -35 c0 -8 -5 -15 -11 -15 -6 0 -17
7 -25 15 -14 13 -13 15 10 15 16 0 26 -6 26 -15z m-1820 -125 c0 -7 -230 -10
-670 -10 -440 0 -670 3 -670 10 0 7 230 10 670 10 440 0 670 -3 670 -10z
m6240 -450 c0 -7 -217 -10 -631 -10 -417 0 -628 3 -624 10 4 6 225 10 631 10
409 0 624 -3 624 -10z m100 -80 c0 -6 -120 -10 -340 -10 -220 0 -340 4 -340
10 0 6 120 10 340 10 220 0 340 -4 340 -10z m100 -720 c0 -7 -475 -10 -1405
-10 -930 0 -1405 3 -1405 10 0 7 475 10 1405 10 930 0 1405 -3 1405 -10z"/>
<path d="M4908 4273 c7 -3 16 -2 19 1 4 3 -2 6 -13 5 -11 0 -14 -3 -6 -6z"/>
<path d="M2740 4085 c0 -23 4 -25 45 -25 41 0 45 2 45 25 0 23 -4 25 -45 25
-41 0 -45 -2 -45 -25z"/>
<path d="M2860 4085 c0 -22 4 -25 35 -25 31 0 35 3 35 25 0 22 -4 25 -35 25
-31 0 -35 -3 -35 -25z"/>
<path d="M4463 4118 c2 -7 10 -13 17 -13 7 0 15 6 18 13 2 7 -5 12 -18 12 -13
0 -20 -5 -17 -12z"/>
<path d="M3398 4093 c7 -3 16 -2 19 1 4 3 -2 6 -13 5 -11 0 -14 -3 -6 -6z"/>
<path d="M3525 3820 c3 -5 8 -10 11 -10 2 0 4 5 4 10 0 6 -5 10 -11 10 -5 0
-7 -4 -4 -10z"/>
<path d="M4460 3770 c0 -5 9 -10 20 -10 11 0 20 5 20 10 0 6 -9 10 -20 10 -11
0 -20 -4 -20 -10z"/>
<path d="M3300 3700 c0 -5 7 -10 15 -10 8 0 15 5 15 10 0 6 -7 10 -15 10 -8 0
-15 -4 -15 -10z"/>
<path d="M3525 3630 c-3 -5 -1 -10 4 -10 6 0 11 5 11 10 0 6 -2 10 -4 10 -3 0
-8 -4 -11 -10z"/>
<path d="M4086 3579 c-65 -52 1 -148 75 -108 47 25 42 95 -8 118 -32 15 -36
14 -67 -10z"/>
<path d="M4908 3223 c7 -3 16 -2 19 1 4 3 -2 6 -13 5 -11 0 -14 -3 -6 -6z"/>
<path d="M4917 8532 c-15 -16 -17 -55 -17 -335 0 -307 -1 -316 -20 -322 -17
-5 -20 -15 -20 -61 l0 -54 -61 0 -61 0 4 -40 c2 -29 0 -40 -12 -44 -8 -2 10
-4 40 -5 30 -1 85 -4 123 -8 l67 -6 -2 -60 c-2 -41 2 -62 10 -65 7 -2 12 -13
12 -25 0 -17 6 -22 25 -22 19 0 25 5 25 23 0 21 4 22 70 22 l70 0 0 -39 c0
-32 -23 -164 -45 -258 -5 -20 -12 -23 -55 -23 -42 0 -50 -3 -50 -19 0 -16 10
-19 63 -23 34 -3 65 -4 68 -2 4 2 14 44 24 94 10 50 19 89 21 87 2 -2 12 -44
22 -92 l18 -89 137 3 c149 3 149 3 127 -53 l-10 -26 -235 0 c-228 0 -235 -1
-235 -20 0 -19 7 -20 255 -20 196 0 256 3 259 13 2 6 10 34 16 60 l13 48 66
-3 66 -3 14 -55 c8 -30 18 -57 23 -61 4 -3 24 -3 43 -1 26 3 35 9 35 23 0 13
-7 19 -24 19 -17 0 -26 7 -30 24 -3 13 -9 31 -12 40 -5 13 1 16 30 16 29 0 36
4 36 20 0 17 -7 20 -40 20 -45 0 -40 -10 -93 195 -32 123 -31 125 54 125 59 0
69 -3 69 -17 0 -12 8 -18 25 -18 17 0 25 6 25 18 0 15 10 17 70 17 l70 0 0
-37 c0 -21 -9 -90 -20 -153 -11 -63 -20 -118 -20 -122 0 -5 -25 -8 -55 -8 -48
0 -55 -2 -55 -20 0 -17 7 -20 55 -22 30 -1 63 -2 73 -2 14 -1 20 16 33 94 18
104 20 103 47 -14 l17 -80 163 3 162 3 0 -41 0 -41 -275 0 c-267 0 -275 -1
-275 -20 0 -19 9 -19 291 -22 174 -2 294 1 300 7 5 5 9 33 9 62 l0 53 80 0
c73 0 80 2 80 20 0 18 -7 20 -80 20 l-80 0 0 78 c0 42 3 114 7 160 l6 82 68 0
c59 0 69 -3 69 -17 0 -12 8 -18 25 -18 17 0 25 6 25 18 0 15 10 17 70 17 l70
0 0 -32 c0 -18 -10 -90 -22 -160 l-23 -128 -52 0 c-46 0 -53 -3 -53 -20 0 -17
7 -20 55 -22 30 -1 63 -2 72 -2 14 -1 20 15 31 91 8 51 17 91 21 88 4 -2 13
-37 20 -77 7 -40 16 -79 19 -86 6 -10 242 -13 1225 -12 l1217 0 0 -3140 0
-3140 -652 1 c-359 0 -647 3 -640 6 19 8 17 219 -3 227 -8 3 -13 11 -11 18 1
7 1 10 -1 6 -3 -5 -12 -8 -20 -8 -12 0 -14 7 -9 31 3 17 6 85 6 150 0 165 19
154 23 -14 l3 -132 2 133 2 132 470 0 470 0 0 1559 c0 858 -3 1561 -7 1563 -5
2 -132 1 -283 -2 l-275 -6 263 -2 c154 -1 262 -6 262 -11 0 -5 -12 -12 -27
-14 l-28 -4 28 -2 27 -1 0 -1520 0 -1520 -466 0 c-257 1 -469 -2 -472 -4 -3
-3 -4 -71 -3 -151 l2 -145 -43 0 c-51 0 -73 -12 -65 -34 5 -12 21 -16 59 -17
29 -1 45 -3 36 -6 -10 -2 -18 -14 -18 -26 0 -18 6 -22 33 -22 l32 0 0 -60 0
-60 -32 -3 c-24 -2 -33 -8 -33 -22 0 -10 7 -20 15 -24 8 -3 15 -17 15 -30 l0
-26 688 -2 c378 -2 690 -1 695 3 4 3 6 1434 5 3180 l-3 3174 -1224 5 -1225 5
-27 125 c-16 69 -29 140 -29 158 0 29 3 32 30 32 l30 0 0 70 0 70 -72 2 -73 2
75 6 c41 4 71 7 65 8 -5 1 -10 19 -10 39 l0 38 -57 3 c-63 3 -60 -2 -60 81 0
24 -6 35 -19 38 -18 5 -19 21 -19 318 0 272 -2 316 -16 329 -19 20 -163 23
-182 4 -9 -9 -12 -97 -12 -335 0 -316 0 -323 -20 -323 -18 0 -20 -7 -20 -55
l0 -54 -57 -3 -58 -3 -6 -42 -5 -43 45 0 c25 0 76 -3 114 -7 l67 -6 0 -43 0
-44 -55 0 -55 0 0 40 0 40 -59 0 -59 0 -3 -42 c-7 -74 -1 -88 32 -88 l29 0 0
-129 c0 -71 -3 -143 -6 -160 l-6 -31 -143 0 -143 0 -31 128 c-17 70 -31 142
-31 160 0 29 3 32 30 32 l30 0 0 70 0 70 -72 2 -73 2 75 6 c41 4 71 7 65 8 -5
1 -10 19 -10 39 l0 38 -57 3 c-32 2 -59 6 -59 10 -1 4 -2 29 -3 57 -1 39 -5
50 -18 53 -17 3 -18 26 -18 316 0 369 7 346 -111 346 -45 0 -80 -5 -87 -12 -9
-9 -12 -97 -12 -335 0 -316 0 -323 -20 -323 -18 0 -20 -7 -20 -55 l0 -55 -60
0 -60 0 0 -39 c0 -22 -5 -42 -12 -44 -7 -3 12 -6 42 -6 30 -1 85 -4 123 -8
l67 -6 0 -43 0 -44 -54 0 -55 0 -3 38 -3 37 -56 3 -57 3 -3 -43 c-7 -74 -1
-88 32 -88 39 0 38 -18 -6 -167 -20 -65 -38 -126 -41 -135 -5 -16 -20 -18
-133 -18 l-128 0 -27 128 c-14 70 -26 142 -26 160 0 29 3 32 30 32 l30 0 0 65
0 65 -72 2 -73 2 80 6 c44 3 73 7 65 8 -12 2 -15 12 -12 42 l4 40 -61 0 -61 0
0 60 c0 53 -2 60 -20 60 -20 0 -20 7 -20 318 0 374 7 352 -107 352 -55 0 -73
-4 -86 -18z m863 -977 c0 -12 -13 -15 -55 -15 -42 0 -55 3 -55 15 0 12 13 15
55 15 42 0 55 -3 55 -15z m790 0 c0 -12 -13 -15 -55 -15 -42 0 -55 3 -55 15 0
12 13 15 55 15 42 0 55 -3 55 -15z m-890 -337 c0 -5 -22 -8 -50 -8 -27 0 -50
4 -50 9 0 6 12 47 26 93 l27 83 23 -85 c13 -47 24 -88 24 -92z m3240 -4213 c0
-1003 -3 -1515 -10 -1515 -7 0 -10 512 -10 1515 0 1003 3 1515 10 1515 7 0 10
-512 10 -1515z m-40 -1545 c0 -7 -155 -10 -445 -10 -290 0 -445 3 -445 10 0 7
155 10 445 10 290 0 445 -3 445 -10z"/>
<path d="M4152 7440 c0 -14 2 -19 5 -12 2 6 2 18 0 25 -3 6 -5 1 -5 -13z"/>
<path d="M4982 7440 c0 -14 2 -19 5 -12 2 6 2 18 0 25 -3 6 -5 1 -5 -13z"/>
<path d="M5022 7440 c0 -14 2 -19 5 -12 2 6 2 18 0 25 -3 6 -5 1 -5 -13z"/>
<path d="M5802 7440 c0 -14 2 -19 5 -12 2 6 2 18 0 25 -3 6 -5 1 -5 -13z"/>
<path d="M5842 7440 c0 -14 2 -19 5 -12 2 6 2 18 0 25 -3 6 -5 1 -5 -13z"/>
<path d="M6592 7440 c0 -14 2 -19 5 -12 2 6 2 18 0 25 -3 6 -5 1 -5 -13z"/>
<path d="M6632 7440 c0 -14 2 -19 5 -12 2 6 2 18 0 25 -3 6 -5 1 -5 -13z"/>
<path d="M4192 7430 c0 -14 2 -19 5 -12 2 6 2 18 0 25 -3 6 -5 1 -5 -13z"/>
<path d="M2713 6789 c-15 -15 -5 -39 17 -39 12 0 17 6 15 18 -2 9 -4 20 -4 25
-1 11 -15 9 -28 -4z"/>
<path d="M4982 6773 c2 -10 12 -18 23 -18 11 0 21 8 23 18 3 13 -3 17 -23 17
-20 0 -26 -4 -23 -17z"/>
<path d="M2823 6664 c-3 -9 0 -20 8 -25 23 -14 29 -11 29 16 0 28 -27 35 -37
9z"/>
<path d="M5800 6661 c0 -24 25 -34 40 -16 15 18 5 35 -21 35 -12 0 -19 -7 -19
-19z"/>
<path d="M6788 4563 c232 -2 612 -2 845 0 232 1 42 2 -423 2 -465 0 -655 -1
-422 -2z"/>
<path d="M7243 4533 c236 -2 618 -2 850 0 232 1 40 2 -428 2 -467 0 -657 -1
-422 -2z"/>
<path d="M7905 4373 c435 -2 797 -6 805 -10 8 -5 -172 -10 -400 -13 l-415 -5
413 -3 412 -2 2 -597 3 -598 2 593 c2 377 7 592 13 592 6 0 11 -107 13 -282
l2 -283 3 308 2 307 -822 -2 -823 -3 790 -2z"/>
<path d="M2707 3426 c-8 -21 22 -44 33 -26 10 17 2 40 -15 40 -7 0 -15 -6 -18
-14z"/>
<path d="M2962 3278 c-1 -18 -8 -28 -17 -28 -17 0 -20 -35 -4 -46 19 -12 30
12 26 57 -2 24 -4 32 -5 17z"/>
<path d="M8742 2483 c-1 -535 -5 -823 -12 -823 -6 0 -11 181 -13 508 l-2 507
-3 -507 -2 -508 -822 -2 -823 -3 818 -2 c533 -2 817 -7 817 -13 0 -7 -201 -11
-572 -12 l-573 -3 590 -5 c325 -3 593 -2 598 1 4 3 6 383 4 845 l-2 839 -3
-822z"/>
<path d="M7120 2115 c0 -8 -7 -15 -15 -15 -9 0 -15 -10 -15 -26 0 -15 4 -23
11 -19 5 4 21 4 35 1 22 -6 24 -11 24 -67 l0 -61 -35 4 c-34 4 -36 2 -33 -21
3 -23 8 -26 46 -29 l42 -3 0 106 c0 108 -5 123 -42 138 -12 4 -18 2 -18 -8z"/>
<path d="M7800 2110 c0 -5 -7 -10 -15 -10 -9 0 -15 -10 -15 -26 0 -15 4 -23
11 -19 5 4 21 4 35 1 22 -6 24 -11 24 -66 l0 -60 -36 0 c-31 0 -35 -3 -32 -22
2 -19 10 -24 46 -26 l42 -3 0 107 c0 90 -3 109 -17 120 -21 16 -43 18 -43 4z"/>
<path d="M6393 1654 c-4 -10 0 -22 10 -29 8 -6 17 -29 20 -51 4 -38 4 -38 5 9
l2 47 383 2 382 3 -377 2 c-233 2 -378 7 -378 13 0 5 58 11 138 13 l137 3
-158 2 c-138 2 -158 0 -164 -14z"/>
<path d="M6404 1375 c0 -110 2 -156 3 -103 2 53 2 143 0 200 -1 57 -3 13 -3
-97z"/>
<path d="M6434 1320 c0 -80 2 -112 3 -72 2 39 2 105 0 145 -1 39 -3 7 -3 -73z"/>
<path d="M7154 1280 c0 -63 1 -89 3 -57 2 31 2 83 0 115 -2 31 -3 5 -3 -58z"/>
<path d="M7627 1163 c-6 -29 5 -49 20 -40 11 7 4 67 -7 67 -4 0 -10 -12 -13
-27z"/>
<path d="M7670 1155 c0 -24 5 -35 15 -35 10 0 15 11 15 35 0 24 -5 35 -15 35
-10 0 -15 -11 -15 -35z"/>
<path d="M7750 1143 c0 -13 5 -23 10 -23 13 0 13 11 0 30 -8 12 -10 11 -10 -7z"/>
<path d="M7120 1135 c0 -8 -7 -15 -15 -15 -9 0 -15 -9 -15 -23 0 -18 5 -22 33
-22 l32 0 3 -64 3 -63 -35 4 c-32 3 -36 1 -36 -18 0 -22 23 -34 68 -34 21 0
22 3 22 106 0 107 -5 122 -42 137 -12 4 -18 2 -18 -8z"/>
<path d="M7762 570 c0 -30 2 -47 5 -37 5 18 5 18 25 0 21 -18 21 -18 9 5 -10
18 -10 27 0 38 7 8 7 14 1 14 -5 0 -13 -8 -18 -17 -6 -14 -9 -11 -14 17 -6 30
-7 28 -8 -20z"/>
<path d="M8103 570 c0 -30 2 -43 4 -27 2 15 2 39 0 55 -2 15 -4 2 -4 -28z"/>
<path d="M8133 570 c0 -30 2 -43 4 -27 2 15 2 39 0 55 -2 15 -4 2 -4 -28z"/>
<path d="M8250 602 c0 -13 -7 -18 -22 -18 -19 1 -23 -4 -23 -29 0 -26 4 -30
28 -31 26 -1 27 1 27 47 0 27 -2 49 -5 49 -3 0 -5 -8 -5 -18z m-3 -38 c8 -21
-13 -42 -28 -27 -13 13 -5 43 11 43 6 0 13 -7 17 -16z"/>
<path d="M7551 578 c-19 -30 -19 -33 -3 -37 9 -2 20 -8 25 -15 12 -19 23 10
19 49 -5 43 -14 44 -41 3z m15 -25 c-10 -10 -19 5 -10 18 6 11 8 11 12 0 2 -7
1 -15 -2 -18z"/>
<path d="M7668 603 c26 -5 26 -6 6 -44 -8 -17 -13 -33 -10 -36 5 -5 36 62 36
78 0 5 -12 8 -27 8 -24 -2 -25 -2 -5 -6z"/>
<path d="M7832 598 c-7 -7 -12 -21 -11 -32 1 -18 2 -17 8 4 5 18 14 25 31 25
17 0 26 -7 31 -25 6 -21 7 -22 8 -4 1 24 -17 44 -39 44 -9 0 -21 -5 -28 -12z"/>
<path d="M7951 536 c1 -31 4 -43 7 -31 4 11 16 20 27 20 16 0 20 7 20 30 0 26
-4 30 -27 31 -27 1 -28 -1 -27 -50z m49 19 c0 -28 -24 -34 -34 -9 -8 20 1 34
20 34 8 0 14 -10 14 -25z"/>
<path d="M8023 560 c2 -31 5 -35 30 -36 25 -1 27 2 26 35 -1 36 -1 36 -8 6 -3
-17 -13 -30 -21 -30 -8 0 -18 13 -22 30 -6 29 -6 29 -5 -5z"/>
<path d="M8284 576 c-11 -29 0 -51 26 -51 19 0 26 6 29 25 l3 25 13 -30 c13
-29 14 -29 20 -7 9 28 21 28 29 0 7 -28 21 -15 29 27 l6 30 -14 -30 -13 -30
-7 28 c-4 15 -11 27 -15 27 -4 0 -11 -12 -15 -27 l-8 -28 -6 24 c-5 19 -15 26
-39 28 -22 3 -34 -1 -38 -11z m46 -21 c0 -25 -23 -35 -35 -15 -10 16 2 40 20
40 9 0 15 -9 15 -25z"/>
<path d="M8451 551 l1 -36 9 33 c12 39 36 42 42 5 4 -26 4 -26 3 2 -1 26 -5
30 -28 31 -26 1 -28 -2 -27 -35z"/>
<path d="M8168 553 c7 -3 16 -2 19 1 4 3 -2 6 -13 5 -11 0 -14 -3 -6 -6z"/>
<path d="M7875 530 c-3 -5 1 -10 10 -10 9 0 13 5 10 10 -3 6 -8 10 -10 10 -2
0 -7 -4 -10 -10z"/>
<path d="M7828 523 c7 -3 16 -2 19 1 4 3 -2 6 -13 5 -11 0 -14 -3 -6 -6z"/>
<path d="M8409 443 c-8 -10 -9 -14 -2 -10 8 5 13 -5 16 -30 3 -35 4 -34 5 10
2 52 1 55 -19 30z"/>
<path d="M8480 452 c0 -6 9 -8 20 -5 25 7 26 -12 3 -26 -17 -10 -17 -10 0 -11
24 0 22 -28 -3 -33 -17 -4 -16 -4 2 -3 20 1 23 6 23 41 0 34 -3 40 -22 43 -13
2 -23 -1 -23 -6z"/>
<path d="M7817 444 c-9 -9 9 -68 21 -70 7 -1 8 0 2 3 -14 7 -13 50 2 55 8 3 6
6 -4 10 -9 4 -18 5 -21 2z"/>
<path d="M7541 400 c1 -27 3 -29 6 -10 2 14 11 30 20 37 13 10 13 12 -6 10
-17 -1 -21 -7 -20 -37z"/>
<path d="M7594 426 c-11 -28 0 -51 26 -53 l25 -3 -25 12 -25 11 23 5 c15 2 22
9 20 20 -4 22 -36 28 -44 8z m36 -6 c0 -5 -7 -10 -16 -10 -8 0 -12 5 -9 10 3
6 10 10 16 10 5 0 9 -4 9 -10z"/>
<path d="M7660 425 c0 -9 7 -18 15 -21 20 -8 19 -21 -2 -27 -14 -4 -12 -5 5
-6 16 -1 22 5 22 19 0 11 -7 20 -15 20 -21 0 -19 18 3 23 13 4 11 5 -5 6 -15
1 -23 -5 -23 -14z"/>
<path d="M7723 405 c0 -22 2 -30 4 -17 2 12 2 30 0 40 -3 9 -5 -1 -4 -23z"/>
<path d="M7760 425 c0 -9 7 -18 15 -21 20 -8 19 -21 -2 -27 -14 -4 -12 -5 5
-6 16 -1 22 5 22 19 0 11 -7 20 -15 20 -21 0 -19 18 3 23 13 4 11 5 -5 6 -15
1 -23 -5 -23 -14z"/>
<path d="M7864 426 c-11 -29 0 -51 26 -51 21 0 25 5 25 30 0 24 -5 31 -23 33
-13 2 -24 -3 -28 -12z m46 -21 c0 -25 -23 -35 -35 -15 -10 16 2 40 20 40 9 0
15 -9 15 -25z"/>
<path d="M7941 400 c1 -27 3 -29 6 -10 2 14 11 30 20 37 13 10 13 12 -6 10
-17 -1 -21 -7 -20 -37z"/>
<path d="M8014 426 c-11 -29 0 -51 26 -51 21 0 25 5 25 30 0 24 -5 31 -23 33
-13 2 -24 -3 -28 -12z m46 -21 c0 -25 -23 -35 -35 -15 -10 16 2 40 20 40 9 0
15 -9 15 -25z"/>
<path d="M8091 401 l1 -36 9 33 c12 39 36 42 42 5 4 -26 4 -26 3 2 -1 26 -5
30 -28 31 -26 1 -28 -2 -27 -35z"/>
<path d="M8191 386 c1 -31 4 -43 7 -31 4 11 16 20 27 20 16 0 20 7 20 30 0 26
-4 30 -27 31 -27 1 -28 -1 -27 -50z m49 19 c0 -28 -24 -34 -34 -9 -8 20 1 34
20 34 8 0 14 -10 14 -25z"/>
<path d="M8273 405 c0 -22 2 -30 4 -17 2 12 2 30 0 40 -3 9 -5 -1 -4 -23z"/>
<path d="M8301 401 l1 -36 9 33 c12 39 36 42 42 5 4 -26 4 -26 3 2 -1 26 -5
30 -28 31 -26 1 -28 -2 -27 -35z"/>
</g>
</svg>
